<svg xmlns="http://www.w3.org/2000/svg" xml:space="preserve" id="svg142" width="469.936" height="512" x="0" y="0" version="1.1"><style id="style2" type="text/css">.st0{fill:#fff}.st1{stroke-linecap:round;stroke-linejoin:round}.st1,.st2,.st3{fill:none;stroke:#fff;stroke-width:.8658;stroke-miterlimit:10}.st3{stroke-width:.5652}.st4{opacity:.27}.st5{stroke:#fff;stroke-linecap:round;stroke-linejoin:round;stroke-miterlimit:10}.st5,.st6{fill:none}.st7,.st8{stroke-linecap:round;stroke-linejoin:round}.st7{fill:none;stroke:#fff;stroke-width:.728;stroke-miterlimit:10}.st8{stroke-width:.7721}.st8,.st9{fill:none;stroke:#fff;stroke-miterlimit:10}.st10{stroke-linecap:round;stroke-linejoin:round}.st10,.st11{fill:none;stroke:#000;stroke-width:.8658;stroke-miterlimit:10}.st12{stroke-width:.5652}.st12,.st13{fill:none;stroke:#000;stroke-miterlimit:10}.st13,.st14,.st15{stroke-linecap:round;stroke-linejoin:round}.st14{fill:none;stroke:#000;stroke-width:.728;stroke-miterlimit:10}.st15{stroke-width:.7721}.st15,.st16{fill:none;stroke:#000;stroke-miterlimit:10}</style><g id="g365" transform="matrix(3.59884 0 0 3.59884 -1435.72 -1478.429)"><g id="g107"><path id="path105" d="M529.52 493.7c-7.75 45.49-56.36 71.94-98.64 53.39-13.15-5.72-24.37-15.57-31.94-27.73 7.61 12.12 18.86 21.9 32.01 27.55 26.53 11.74 58.87 5.19 78.89-15.75 9.92-10.26 16.51-23.55 18.89-37.58z"/></g><g id="g111"><path id="path109" d="M400.19 442.69c18.22-28.22 56.29-39.8 87.07-26.18 9.97 4.4 19.36 11.2 25.96 19.68-7.25-8.16-16.25-14.73-26.27-18.95-31.05-13.58-67.92-2.37-86.76 25.45z"/></g><g id="g121"><path id="path119" d="m451.15 477.15 1.69-1.77c.24-.27.73-.16.82.19 2.85 9.37 2.3 19.65-1.31 28.69-1.97 5.09-7.88 15.46-13.48 16.65-2.71.6-5.11-1.33-5.48-4-.7-4.86.88-9.8 3.12-14.06 7.07-13.12 21.43-19.29 32.17-28.8-10.63 9.59-24.91 15.86-31.84 28.98-2.16 4.19-3.68 9.06-2.96 13.79.34 2.39 2.48 4.14 4.9 3.56 5.32-1.22 11.07-11.46 12.9-16.38 3.48-8.92 3.92-19.02 1.06-28.13l.82.19-1.68 1.78c-.46.48-1.18-.22-.73-.69z"/></g><circle id="circle123" cx="451.03" cy="472.35" r=".8"/><g id="g127"><path id="path125" d="m475.97 457.59 1.69-1.77c.24-.27.72-.16.82.19 3.16 10.27 2.13 21.61-2.4 31.25-2.3 4.78-5.35 9.38-9.46 12.79-2.11 1.7-5.8 2.14-7.49-.38-1.56-2.36-1.18-5.28-.81-7.91 4.29-22.55 30.61-28.3 42.57-45.46-11.72 17.18-37.96 23.14-42.08 45.54-.33 2.47-.68 5.35.78 7.51 1.54 2.23 4.78 1.74 6.68.2 2.01-1.56 3.7-3.77 5.22-5.81 7.62-10.65 10.03-24.96 6.07-37.44l.82.19-1.68 1.78c-.46.49-1.18-.21-.73-.68z"/></g><circle id="circle129" cx="475.21" cy="452.76" r=".8"/></g></svg>