<?xml version="1.0" encoding="UTF-8" standalone="no"?>
<svg
   xmlns:dc="http://purl.org/dc/elements/1.1/"
   xmlns:cc="http://creativecommons.org/ns#"
   xmlns:rdf="http://www.w3.org/1999/02/22-rdf-syntax-ns#"
   xmlns:svg="http://www.w3.org/2000/svg"
   xmlns="http://www.w3.org/2000/svg"
   xmlns:sodipodi="http://sodipodi.sourceforge.net/DTD/sodipodi-0.dtd"
   xmlns:inkscape="http://www.inkscape.org/namespaces/inkscape"
   version="1.1"
   x="0px"
   y="0px"
   viewBox="0 0 463.67563 511.99999"
   xml:space="preserve"
   id="svg142"
   sodipodi:docname="logo-jj-2.svg"
   width="463.67566"
   height="512"
   inkscape:version="1.0.1 (3bc2e813f5, 2020-09-07)"><metadata
   id="metadata148"><rdf:RDF><cc:Work
       rdf:about=""><dc:format>image/svg+xml</dc:format><dc:type
         rdf:resource="http://purl.org/dc/dcmitype/StillImage" /><dc:title></dc:title></cc:Work></rdf:RDF></metadata><defs
   id="defs146">
	
	
	
	
	
	
	
	
	
	
	
	
	
	
	
	
	
	
	
	
	
	
	
	
	
	
	
	
	
	
	
	
	
	
	
	
	
	
	
	
	
	
	
	
	
</defs><sodipodi:namedview
   pagecolor="#ffffff"
   bordercolor="#666666"
   borderopacity="1"
   objecttolerance="10"
   gridtolerance="10"
   guidetolerance="10"
   inkscape:pageopacity="0"
   inkscape:pageshadow="2"
   inkscape:window-width="1920"
   inkscape:window-height="1017"
   id="namedview144"
   showgrid="false"
   fit-margin-top="0"
   fit-margin-left="0"
   fit-margin-right="0"
   fit-margin-bottom="0"
   inkscape:zoom="0.71391839"
   inkscape:cx="70.597846"
   inkscape:cy="330.6459"
   inkscape:window-x="-8"
   inkscape:window-y="-8"
   inkscape:window-maximized="1"
   inkscape:current-layer="svg142" />
<style
   type="text/css"
   id="style2">
	.st0{fill:#FFFFFF;}
	.st1{fill:none;stroke:#FFFFFF;stroke-width:0.8658;stroke-linecap:round;stroke-linejoin:round;stroke-miterlimit:10;}
	.st2{fill:none;stroke:#FFFFFF;stroke-width:0.8658;stroke-miterlimit:10;}
	.st3{fill:none;stroke:#FFFFFF;stroke-width:0.5652;stroke-miterlimit:10;}
	.st4{opacity:0.27;}
	.st5{fill:none;stroke:#FFFFFF;stroke-linecap:round;stroke-linejoin:round;stroke-miterlimit:10;}
	.st6{fill:none;}
	.st7{fill:none;stroke:#FFFFFF;stroke-width:0.728;stroke-linecap:round;stroke-linejoin:round;stroke-miterlimit:10;}
	.st8{fill:none;stroke:#FFFFFF;stroke-width:0.7721;stroke-linecap:round;stroke-linejoin:round;stroke-miterlimit:10;}
	.st9{fill:none;stroke:#FFFFFF;stroke-miterlimit:10;}
	.st10{fill:none;stroke:#000000;stroke-width:0.8658;stroke-linecap:round;stroke-linejoin:round;stroke-miterlimit:10;}
	.st11{fill:none;stroke:#000000;stroke-width:0.8658;stroke-miterlimit:10;}
	.st12{fill:none;stroke:#000000;stroke-width:0.5652;stroke-miterlimit:10;}
	.st13{fill:none;stroke:#000000;stroke-linecap:round;stroke-linejoin:round;stroke-miterlimit:10;}
	.st14{fill:none;stroke:#000000;stroke-width:0.728;stroke-linecap:round;stroke-linejoin:round;stroke-miterlimit:10;}
	.st15{fill:none;stroke:#000000;stroke-width:0.7721;stroke-linecap:round;stroke-linejoin:round;stroke-miterlimit:10;}
	.st16{fill:none;stroke:#000000;stroke-miterlimit:10;}
</style>

<g
   id="g383"
   transform="matrix(1.9040193,0,0,1.9040193,-234.9119,-243.20525)"
   style="fill:#c8beb7;opacity:1"><g
     id="g121"
     transform="matrix(3.5988379,0,0,3.5988379,-1435.7204,-1478.4288)"
     style="fill:#c8beb7">
		<path
   d="m 451.15,477.15 1.69,-1.77 c 0.24,-0.27 0.73,-0.16 0.82,0.19 2.85,9.37 2.3,19.65 -1.31,28.69 -1.97,5.09 -7.88,15.46 -13.48,16.65 -2.71,0.6 -5.11,-1.33 -5.48,-4 -0.7,-4.86 0.88,-9.8 3.12,-14.06 7.07,-13.12 21.43,-19.29 32.17,-28.8 -10.63,9.59 -24.91,15.86 -31.84,28.98 -2.16,4.19 -3.68,9.06 -2.96,13.79 0.34,2.39 2.48,4.14 4.9,3.56 5.32,-1.22 11.07,-11.46 12.9,-16.38 3.48,-8.92 3.92,-19.02 1.06,-28.13 l 0.82,0.19 -1.68,1.78 c -0.46,0.48 -1.18,-0.22 -0.73,-0.69 z"
   id="path119"
   style="fill:#c8beb7" />
	</g><circle
     cx="187.46346"
     cy="221.4823"
     r="2.8790703"
     id="circle123"
     style="stroke-width:3.59884;fill:#c8beb7" /><g
     id="g127"
     transform="matrix(3.5988379,0,0,3.5988379,-1435.7204,-1478.4288)"
     style="fill:#c8beb7">
		<path
   d="m 475.97,457.59 1.69,-1.77 c 0.24,-0.27 0.72,-0.16 0.82,0.19 3.16,10.27 2.13,21.61 -2.4,31.25 -2.3,4.78 -5.35,9.38 -9.46,12.79 -2.11,1.7 -5.8,2.14 -7.49,-0.38 -1.56,-2.36 -1.18,-5.28 -0.81,-7.91 4.29,-22.55 30.61,-28.3 42.57,-45.46 -11.72,17.18 -37.96,23.14 -42.08,45.54 -0.33,2.47 -0.68,5.35 0.78,7.51 1.54,2.23 4.78,1.74 6.68,0.2 2.01,-1.56 3.7,-3.77 5.22,-5.81 7.62,-10.65 10.03,-24.96 6.07,-37.44 0,0 0.82,0.19 0.82,0.19 l -1.68,1.78 c -0.46,0.49 -1.18,-0.21 -0.73,-0.68 z"
   id="path125"
   style="fill:#c8beb7" />
	</g><circle
     cx="274.48334"
     cy="150.98108"
     r="2.8790703"
     id="circle129"
     style="stroke-width:3.59884;fill:#c8beb7" /></g>
</svg>
